<?xml version="1.0" standalone="no"?>
<!DOCTYPE svg PUBLIC "-//W3C//DTD SVG 20010904//EN"
 "http://www.w3.org/TR/2001/REC-SVG-20010904/DTD/svg10.dtd">
<svg version="1.0" xmlns="http://www.w3.org/2000/svg"
 width="600.000000pt" height="600.000000pt" viewBox="0 0 600.000000 600.000000"
 preserveAspectRatio="xMidYMid meet">
<metadata>
Created by potrace 1.11, written by Peter Selinger 2001-2013
</metadata>
<g transform="translate(0.000000,600.000000) scale(0.100000,-0.100000)"
fill="#000000" stroke="none">
<path d="M849 5985 c-226 -38 -409 -134 -565 -297 -134 -140 -221 -302 -261
-488 -17 -81 -18 -189 -18 -2200 0 -2011 1 -2119 18 -2200 43 -198 129 -353
276 -501 148 -147 303 -233 501 -276 81 -17 189 -18 2200 -18 2011 0 2119 1
2200 18 198 43 353 129 501 276 147 148 233 303 276 501 17 81 18 189 18 2200
0 2011 -1 2119 -18 2200 -43 198 -129 353 -276 501 -143 143 -294 228 -491
275 -71 17 -188 18 -2180 20 -1675 2 -2120 -1 -2181 -11z m1826 -2612 c182
-534 333 -974 335 -977 3 -3 144 428 314 957 170 529 313 970 318 980 8 16 40
17 448 17 l440 0 0 -1430 0 -1430 -295 0 -295 0 -2 1009 -3 1008 -239 -691
c-131 -380 -288 -834 -349 -1008 l-110 -318 -243 0 -243 0 -19 53 c-10 28
-167 476 -348 995 l-329 943 -3 -995 -2 -996 -295 0 -295 0 0 1430 0 1430 442
-2 442 -3 331 -972z"/>
</g>
</svg>
